<svg width="124" height="24" viewBox="0 0 124 24" fill="none" xmlns="http://www.w3.org/2000/svg">
<path d="M11.6196 1.17082C11.7393 0.802296 12.2607 0.802296 12.3804 1.17082L14.6044 8.0154C14.6579 8.18021 14.8115 8.2918 14.9848 8.2918H22.1816C22.5691 8.2918 22.7302 8.78764 22.4167 9.0154L16.5944 13.2456C16.4542 13.3474 16.3955 13.528 16.4491 13.6928L18.673 20.5374C18.7927 20.9059 18.3709 21.2124 18.0575 20.9846L12.2351 16.7544C12.0949 16.6526 11.9051 16.6526 11.7649 16.7544L5.94254 20.9846C5.62905 21.2124 5.20726 20.9059 5.327 20.5374L7.55094 13.6928C7.60449 13.528 7.54583 13.3474 7.40563 13.2456L1.58328 9.0154C1.2698 8.78764 1.43091 8.2918 1.8184 8.2918H9.01521C9.18851 8.2918 9.34209 8.18021 9.39564 8.0154L11.6196 1.17082Z" fill="#F6A326"/>
<path d="M36.6196 1.17082C36.7393 0.802296 37.2607 0.802296 37.3804 1.17082L39.6044 8.0154C39.6579 8.18021 39.8115 8.2918 39.9848 8.2918H47.1816C47.5691 8.2918 47.7302 8.78764 47.4167 9.0154L41.5944 13.2456C41.4542 13.3474 41.3955 13.528 41.4491 13.6928L43.673 20.5374C43.7927 20.9059 43.3709 21.2124 43.0575 20.9846L37.2351 16.7544C37.0949 16.6526 36.9051 16.6526 36.7649 16.7544L30.9425 20.9846C30.6291 21.2124 30.2073 20.9059 30.327 20.5374L32.5509 13.6928C32.6045 13.528 32.5458 13.3474 32.4056 13.2456L26.5833 9.0154C26.2698 8.78764 26.4309 8.2918 26.8184 8.2918H34.0152C34.1885 8.2918 34.3421 8.18021 34.3956 8.0154L36.6196 1.17082Z" fill="#F6A326"/>
<path d="M61.6196 1.17082C61.7393 0.802296 62.2607 0.802296 62.3804 1.17082L64.6044 8.0154C64.6579 8.18021 64.8115 8.2918 64.9848 8.2918H72.1816C72.5691 8.2918 72.7302 8.78764 72.4167 9.0154L66.5944 13.2456C66.4542 13.3474 66.3955 13.528 66.4491 13.6928L68.673 20.5374C68.7927 20.9059 68.3709 21.2124 68.0575 20.9846L62.2351 16.7544C62.0949 16.6526 61.9051 16.6526 61.7649 16.7544L55.9425 20.9846C55.6291 21.2124 55.2073 20.9059 55.327 20.5374L57.5509 13.6928C57.6045 13.528 57.5458 13.3474 57.4056 13.2456L51.5833 9.0154C51.2698 8.78764 51.4309 8.2918 51.8184 8.2918H59.0152C59.1885 8.2918 59.3421 8.18021 59.3956 8.0154L61.6196 1.17082Z" fill="#F6A326"/>
<path d="M86.6196 1.17082C86.7393 0.802296 87.2607 0.802296 87.3804 1.17082L89.6044 8.0154C89.6579 8.18021 89.8115 8.2918 89.9848 8.2918H97.1816C97.5691 8.2918 97.7302 8.78764 97.4167 9.0154L91.5944 13.2456C91.4542 13.3474 91.3955 13.528 91.4491 13.6928L93.673 20.5374C93.7927 20.9059 93.3709 21.2124 93.0575 20.9846L87.2351 16.7544C87.0949 16.6526 86.9051 16.6526 86.7649 16.7544L80.9425 20.9846C80.6291 21.2124 80.2073 20.9059 80.327 20.5374L82.5509 13.6928C82.6045 13.528 82.5458 13.3474 82.4056 13.2456L76.5833 9.0154C76.2698 8.78764 76.4309 8.2918 76.8184 8.2918H84.0152C84.1885 8.2918 84.3421 8.18021 84.3956 8.0154L86.6196 1.17082Z" fill="#F6A326"/>
<path d="M111.62 1.17082C111.739 0.802296 112.261 0.802296 112.38 1.17082L114.604 8.0154C114.658 8.18021 114.811 8.2918 114.985 8.2918H122.182C122.569 8.2918 122.73 8.78764 122.417 9.0154L116.594 13.2456C116.454 13.3474 116.396 13.528 116.449 13.6928L118.673 20.5374C118.793 20.9059 118.371 21.2124 118.057 20.9846L112.235 16.7544C112.095 16.6526 111.905 16.6526 111.765 16.7544L105.943 20.9846C105.629 21.2124 105.207 20.9059 105.327 20.5374L107.551 13.6928C107.604 13.528 107.546 13.3474 107.406 13.2456L101.583 9.0154C101.27 8.78764 101.431 8.2918 101.818 8.2918H109.015C109.189 8.2918 109.342 8.18021 109.396 8.0154L111.62 1.17082Z" fill="#F6A326"/>
</svg>
